# AST/ASF file generated using VICON BodyLanguage
# -----------------------------------------------
:version 1.10
:name VICON
:units
  mass 1.0
  length 0.45
  angle deg
:documentation
   .ast/.asf automatically generated from VICON data using
   VICON BodyBuilder and BodyLanguage model FoxedUp or BRILLIANT.MOD
:root
   order TX TY TZ RX RY RZ
   axis XYZ
   position 0 0 0  
   orientation 0 0 0 
:bonedata
  begin
     id 1 
     name lhipjoint
     direction 0.653368 -0.678499 0.335782 
     length 2.51848 
     axis 0 0 0  XYZ
  end
  begin
     id 2 
     name lfemur
     direction 0.34202 -0.939693 0  
     length 6.57749  
     axis 0 0 20  XYZ
    dof rx ry rz
    limits (-160.0 20.0)
           (-70.0 70.0)
           (-60.0 70.0)
  end
  begin
     id 3 
     name ltibia
     direction 0.34202 -0.939693 0   
     length 7.94618   
     axis 0 0 20   XYZ
    dof rx
    limits (-10.0 170.0)
  end
  begin
     id 4 
     name lfoot
     direction 0.0811271 -0.222895 0.971461   
     length 2.31339   
     axis -90 7.62852e-016 20   XYZ
    dof rx rz
    limits (-45.0 90.0)
           (-70.0 20.0)
  end
  begin
     id 5 
     name ltoes
     direction 1.53568e-011 -4.21885e-011 1   
     length 1.15935   
     axis -90 7.62852e-016 20   XYZ
    dof rx
    limits (-90.0 20.0)
  end
  begin
     id 6 
     name rhipjoint
     direction -0.640058 -0.688614 0.340788   
     length 2.48149  
     axis 0 0 0  XYZ 
  end
  begin
     id 7 
     name rfemur
     direction -0.34202 -0.939693 0   
     length 6.57875   
     axis 0 0 -20   XYZ
    dof rx ry rz
    limits (-160.0 20.0)
           (-70.0 70.0)
           (-70.0 60.0)
  end
  begin
     id 8 
     name rtibia
     direction -0.34202 -0.939693 0   
     length 7.977   
     axis 0 0 -20   XYZ
    dof rx
    limits (-10.0 170.0)
 end
 begin
     id 9 
     name rfoot
     direction -0.0979793 -0.269196 0.958089   
     length 2.19857  
     axis -90 -7.62852e-016 -20   XYZ
    dof rx rz
    limits (-45.0 90.0)
           (-20.0 70.0)
  end
  begin
     id 10 
     name rtoes
     direction -1.53556e-011 -4.21868e-011 1   
     length 1.09838   
     axis -90 -7.62852e-016 -20   XYZ
    dof rx
    limits (-90.0 20.0)
  end
  begin
     id 11 
     name lowerback
     direction 0.0149039 0.998517 -0.0523597   
     length 2.10809   
     axis 0 0 0   XYZ
    dof rx ry rz
    limits (-20.0 45.0)
           (-30.0 30.0)
           (-30.0 30.0)
  end
  begin
     id 12 
     name upperback
     direction -0.00882659 0.999418 -0.0329624   
     length 2.1102   
     axis 0 0 0   XYZ
    dof rx ry rz
    limits (-20.0 45.0)
           (-30.0 30.0)
           (-30.0 30.0)
  end
  begin
     id 13 
     name thorax
     direction -0.0165585 0.999826 -0.0085833   
     length 2.11039   
     axis 0 0 0   XYZ
    dof rx ry rz
    limits (-20.0 45.0)
           (-30.0 30.0)
           (-30.0 30.0)
  end
  begin
     id 14 
     name lowerneck
     direction -0.0130877 0.999911 0.00260353   
     length 1.73253   
     axis 0 0 0   XYZ
    dof rx ry rz
    limits (-20.0 45.0)
           (-30.0 30.0)
           (-30.0 30.0)
  end
  begin
     id 15 
     name upperneck
     direction -0.0348454 0.928205 -0.370435   
     length 1.66692   
     axis 0 0 0   XYZ
    dof rx ry rz
    limits (-20.0 45.0)
           (-30.0 30.0)
           (-30.0 30.0)
  end
  begin
     id 16
     name head
     direction -0.00807754 0.992494 -0.122026  
     length 1.72765  
     axis 0 0 0   XYZ
    dof rx ry rz
    limits (-20.0 45.0)
           (-30.0 30.0)
           (-30.0 30.0)
  end
  begin
     id 17 
     name lclavicle
     direction 0.987582 0.144023 0.0627671  
     length 3.49235  
     axis 0 0 0   XYZ
    dof ry rz
    limits (-20.0 10.0)
           (0.0 20.0)
  end
  begin
     id 18 
     name lhumerus
     direction 1 -4.48958e-011 -1.45183e-018   
     length 5.41917   
     axis 180 -30 -90   XYZ
    dof rx ry rz
    limits (-60.0 90.0)
           (-90.0 90.0)
           (-90.0 90.0)
  end
  begin
     id 19
     name lradius
     direction 1 -4.48999e-011 5.75106e-027   
     length 2.44373   
     axis 180 -30 -90   XYZ
    dof rx
    limits (-10.0 170.0)
  end
  begin
     id 20
     name lwrist
     direction 1 -4.48987e-011 1.53461e-026   
     length 1.22186   
     axis -1.09697e-014 90 90   XYZ
    dof ry
    limits (-180.0 0.0)
 end
  begin
     id 21 
     name lhand
     direction 1 -4.48881e-011 3.06923e-026   
     length 0.727502   
     axis -1.95843e-014 90 90   XYZ
    dof rx rz
    limits (-90.0 90.0)
           (-45.0 45.0)
  end
  begin
     id 22 
     name lfingers
     direction 1 -4.48907e-011 6.13845e-026   
     length 0.586531   
     axis -3.91686e-014 90 90   XYZ
    dof rx
    limits (0.0 90.0)
  end
  begin
     id 23
     name lthumb
     direction 0.707107 -6.3487e-011 0.707107   
     length 0.842145   
     axis -90 45 2.85299e-015   XYZ
    dof rx rz
    limits (-45.0 45.0)
           (-45.0 45.0)
  end
  begin
     id 24 
     name rclavicle
     direction -0.980998 0.169556 0.0943023   
     length 3.29272  
     axis 0 0 0   XYZ 
    dof ry rz
    limits (-10.0 20.0)
           (-20.0 0.0)
  end
  begin
     id 25 
     name rhumerus
     direction -1 -1.83355e-005 2.45537e-005  
     length 5.58976   
     axis 180 30 90   XYZ
    dof rx ry rz
    limits (-90.0 60.0)
           (-90.0 90.0)
           (-90.0 90.0)
  end
  begin
     id 26 
     name rradius
     direction -1 -4.48967e-011 5.97228e-027   
     length 2.4806   
     axis 180 30 90   XYZ
    dof rx
    limits (-10.0 170.0)
  end
  begin
     id 27 
     name rwrist
     direction -1 -4.48963e-011 1.53461e-026   
     length 1.2403   
     axis -1.09697e-014 -90 -90   XYZ
    dof ry
    limits (-180.0 0.0)
  end
  begin
     id 28
     name rhand
     direction -1 -4.48881e-011 3.06923e-026   
     length 0.816009   
     axis -1.95843e-014 -90 -90   XYZ
    dof rx rz
    limits (-90.0 90.0)
           (-45.0 45.0)
  end
  begin
     id 29
     name rfingers
     direction -1 -4.49018e-011 6.13845e-026   
     length 0.657887   
     axis -3.91686e-014 -90 -90   XYZ
    dof rx
    limits (0.0 90.0)
  end
  begin
     id 30
     name rthumb
     direction -0.707107 -6.34872e-011 0.707107   
     length 0.944599   
     axis -90 -45 -2.85299e-015   XYZ
    dof rx rz
    limits (-45.0 45.0)
           (-45.0 45.0)
  end
:hierarchy
  begin
    root lhipjoint rhipjoint lowerback
    lhipjoint lfemur
    lfemur ltibia
    ltibia lfoot
    lfoot ltoes
    rhipjoint rfemur
    rfemur rtibia
    rtibia rfoot
    rfoot rtoes
    lowerback upperback
    upperback thorax
    thorax lowerneck lclavicle rclavicle
    lowerneck upperneck
    upperneck head
    lclavicle lhumerus
    lhumerus lradius
    lradius lwrist
    lwrist lhand lthumb
    lhand lfingers
    rclavicle rhumerus
    rhumerus rradius
    rradius rwrist
    rwrist rhand rthumb
    rhand rfingers
  end

#!OML:ASF F:\VICON\USERDATA\INSTALL\rory3\rory3.ASF
:FULLY-SPECIFIED
:DEGREES
66
root 1.31946 16.8532 29.3117 -157.783 -14.5819 -180.083
lowerback -10.8704 -5.29728 -0.904438
upperback -11.922 -8.78567 2.78584
thorax -6.00247 -5.01014 2.9955
lowerneck -16.0822 0.142552 0.597359
upperneck 34.0856 3.21957 -1.1216
head 14.4418 2.30833 0.238522
rclavicle 3.18801e-014 5.76476e-015
rhumerus -76.2365 -75.1726 48.2176
rradius 11.7579
rwrist 81.2526
rhand 0.136769 2.90172
rfingers 7.12502
rthumb 25.7214 -25.3801
lclavicle 3.18801e-014 5.76476e-015
lhumerus 27.2269 -8.07548 53.4262
lradius 16.879
lwrist -55.184
lhand 9.88293 29.9358
lfingers 7.12502
lthumb 35.0153 56.4883
rfemur -57.1112 -0.0711705 23.8198
rtibia 52.7033
rfoot -8.85901 -21.9991
rtoes 20.5176
lfemur -19.1602 0.384528 -22.0454
ltibia 37.9003
lfoot -35.0855 21.3132
ltoes 2.45712
67
root 1.33821 16.9623 29.2512 -157.773 -14.5163 -180.67
lowerback -10.8372 -5.30695 -1.74701
upperback -11.7472 -8.70456 2.44136
thorax -5.77505 -4.90734 3.07907
lowerneck -16.053 -0.0698513 0.829803
upperneck 34.2444 2.78252 -0.886467
head 14.4994 2.19803 0.224975
rclavicle -7.69048e-015 -2.78299e-015
rhumerus -77.7019 -75.1601 49.7306
rradius 11.7604
rwrist 80.6543
rhand -0.0122905 2.6794
rfingers 7.12502
rthumb 25.5786 -25.623
lclavicle -7.69048e-015 -2.78299e-015
lhumerus 28.2841 -5.6132 55.285
lradius 16.4059
lwrist -58.2419
lhand 9.64759 29.8586
lfingers 7.12502
lthumb 34.792 56.463
rfemur -56.5343 0.535653 22.7551
rtibia 52.2514
rfoot -8.10479 -22.4175
rtoes 21.0552
lfemur -19.3278 0.684903 -22.8346
ltibia 37.7684
lfoot -34.6143 20.86
ltoes 2.97327
68
root 1.34142 17.0841 29.2123 -157.922 -14.7782 -180.96
lowerback -10.562 -5.37825 -2.00713
upperback -11.6259 -8.74674 2.22374
thorax -5.78861 -4.89795 3.01242
lowerneck -15.6917 -0.113216 0.972623
upperneck 34.266 2.61793 -0.576226
head 14.4205 2.21149 0.298595
rclavicle -3.70982e-014 1.90833e-014
rhumerus -90.0973 -75.757 62.5723
rradius 11.8311
rwrist 83.5414
rhand 0.187635 3.5511
rfingers 7.12502
rthumb 25.7701 -24.7237
lclavicle -3.70982e-014 1.90833e-014
lhumerus 29.065 -3.21419 57.1992
lradius 16.0685
lwrist -60.7678
lhand 9.68488 29.8609
lfingers 7.12502
lthumb 34.8274 56.4571
rfemur -55.9508 0.476019 22.3145
rtibia 51.8213
rfoot -7.41227 -22.6005
rtoes 19.5142
lfemur -19.5262 1.06921 -23.2716
ltibia 37.6184
lfoot -33.4908 20.465
ltoes 1.94408
69
root 1.35908 17.2013 29.175 -157.967 -14.6686 -181.371
lowerback -10.3657 -5.40354 -2.74935
upperback -11.4635 -8.69261 2.07852
thorax -5.6472 -4.80762 3.26982
lowerneck -15.2868 -0.204253 1.11466
upperneck 34.1915 2.45901 -0.518846
head 14.2931 2.18666 0.266961
rclavicle 4.29313e-014 2.21645e-014
rhumerus -94.2841 -75.8373 66.9521
rradius 11.8573
rwrist 83.9949
rhand 0.191759 4.04282
rfingers 7.12502
rthumb 25.774 -24.2314
lclavicle 4.29313e-014 2.21645e-014
lhumerus 29.708 -5.25605 55.9056
lradius 16.4373
lwrist -58.4665
lhand 10.0858 30.5986
lfingers 7.12502
lthumb 35.2077 57.1059
rfemur -55.598 0.905894 21.6163
rtibia 51.4759
rfoot -6.42854 -23.3977
rtoes 20.191
lfemur -19.8308 1.53735 -23.9238
ltibia 37.4353
lfoot -32.1636 20.3519
ltoes -0.0828484
70
root 1.3691 17.3085 29.1417 -157.948 -14.4587 -181.765
lowerback -10.0577 -5.34765 -3.36297
upperback -11.4362 -8.57961 1.91463
thorax -5.74285 -4.70323 3.47465
lowerneck -15.2633 -0.551416 1.27133
upperneck 34.4175 1.99078 -0.649847
head 14.3876 2.00774 0.116195
rclavicle -3.15074e-014 -1.08338e-014
rhumerus -93.4513 -75.8435 66.1973
rradius 11.8029
rwrist 83.2735
rhand 0.288851 4.17624
rfingers 7.12502
rthumb 25.867 -24.0845
lclavicle -3.15074e-014 -1.08338e-014
lhumerus 30.165 -8.78396 53.4388
lradius 16.9359
lwrist -54.8221
lhand 9.61369 31.0674
lfingers 7.12502
lthumb 34.7598 57.6792
rfemur -55.4327 1.10553 21.0048
rtibia 51.2204
rfoot -4.56619 -24.4227
rtoes 22.3176
lfemur -20.1529 2.09121 -24.6603
ltibia 37.2018
lfoot -30.3967 20.1499
ltoes -2.09705
71
root 1.37042 17.4131 29.1097 -157.9 -14.424 -182.109
lowerback -9.77534 -5.27508 -3.70629
upperback -11.3981 -8.46132 1.70562
thorax -5.85508 -4.61532 3.48369
lowerneck -15.0194 -0.805531 1.38346
upperneck 34.4093 1.62718 -0.707905
head 14.324 1.87161 0.0129275
rclavicle 5.41812e-014 7.03201e-015
rhumerus -91.253 -75.6633 64.0173
rradius 11.8119
rwrist 82.2257
rhand 0.465488 4.23482
rfingers 7.12502
rthumb 26.0362 -24.0011
lclavicle 5.41812e-014 7.03201e-015
lhumerus 30.6562 -7.31309 54.9071
lradius 16.6134
lwrist -57.1213
lhand 8.99197 30.471
lfingers 7.12502
lthumb 34.1696 57.2169
rfemur -55.3859 0.911381 20.5691
rtibia 51.0336
rfoot -2.32066 -25.282
rtoes 22.2004
lfemur -20.452 2.60007 -25.3089
ltibia 36.9659
lfoot -28.4705 19.5269
ltoes -2.75307
72
root 1.37359 17.5165 29.0802 -157.877 -14.3582 -182.735
lowerback -9.46453 -5.29729 -4.38936
upperback -11.2117 -8.41875 1.46077
thorax -5.77916 -4.53627 3.6194
lowerneck -14.9947 -0.834646 1.4567
upperneck 34.3446 1.50438 -0.56471
head 14.2859 1.84547 0.0365199
rclavicle 9.42286e-016 1.63531e-015
rhumerus -93.8759 -75.6971 66.7645
rradius 11.8994
rwrist 82.0909
rhand 0.961416 4.45916
rfingers 7.12502
rthumb 26.5109 -23.706
lclavicle 9.42286e-016 1.63531e-015
lhumerus 31.2626 -7.75917 54.6405
lradius 16.7605
lwrist -56.4126
lhand 8.88339 30.8092
lfingers 7.12502
lthumb 34.0665 57.5782
rfemur -55.3651 0.680678 19.78
rtibia 50.9428
rfoot -0.77542 -26.017
rtoes 23.6537
lfemur -20.6026 2.86968 -26.2011
ltibia 36.7258
lfoot -26.621 18.9071
ltoes -2.46902
73
root 1.38191 17.61 29.0533 -157.816 -14.3963 -183.041
lowerback -9.33402 -5.30942 -4.86999
upperback -10.9848 -8.35438 1.36063
thorax -5.5646 -4.46029 3.77057
lowerneck -14.827 -0.853075 1.52579
upperneck 34.1814 1.42633 -0.498487
head 14.1725 1.82623 0.0340845
rclavicle -4.38817e-014 -1.59028e-014
rhumerus -100.678 -75.6274 73.959
rradius 11.9315
rwrist 82.9441
rhand 1.47611 5.06392
rfingers 7.12502
rthumb 27.0035 -23.0259
lclavicle -4.38817e-014 -1.59028e-014
lhumerus 31.9637 -8.56735 54.0472
lradius 16.8979
lwrist -55.1273
lhand 8.43203 30.7769
lfingers 7.12502
lthumb 33.6377 57.6404
rfemur -55.4006 1.06556 19.0765
rtibia 50.8098
rfoot -1.42733 -27.3905
rtoes 28.8601
lfemur -20.9865 3.10767 -26.7081
ltibia 36.5765
lfoot -24.0894 18.8527
ltoes -4.86001
74
root 1.38582 17.6848 29.0338 -157.798 -14.3147 -183.449
lowerback -9.10081 -5.3089 -5.40805
upperback -10.725 -8.26952 1.22309
thorax -5.37298 -4.36908 3.92576
lowerneck -14.6656 -0.892156 1.63329
upperneck 33.9626 1.30503 -0.482663
head 14.036 1.77962 -0.00439309
rclavicle 1.8664e-014 -1.49089e-016
rhumerus -111.284 -75.1612 85.0395
rradius 12.0318
rwrist 84.6885
rhand 1.86274 5.83191
rfingers 7.12502
rthumb 27.3733 -22.2001
lclavicle 1.8664e-014 -1.49089e-016
lhumerus 32.7099 -9.00731 53.6213
lradius 16.9207
lwrist -54.3405
lhand 8.07098 30.7052
lfingers 7.12502
lthumb 33.2945 57.6428
rfemur -55.4048 1.49604 18.2421
rtibia 50.69
rfoot -2.16321 -28.6444
rtoes 32.712
lfemur -21.2775 3.31479 -27.371
ltibia 36.4921
lfoot -21.5503 18.546
ltoes -7.43637
75
root 1.3757 17.7568 29.0204 -157.75 -14.2151 -183.618
lowerback -8.79581 -5.20223 -5.45747
upperback -10.5787 -8.10014 1.07942
thorax -5.41055 -4.26781 3.83843
lowerneck -14.5665 -0.965663 1.73607
upperneck 33.8503 1.17214 -0.525948
head 13.9619 1.72554 -0.0641268
rclavicle -9.73113e-015 8.29926e-015
rhumerus -104.992 -75.575 78.7483
rradius 11.9379
rwrist 81.6314
rhand 1.95238 5.57487
rfingers 7.12502
rthumb 27.459 -22.4436
lclavicle -9.73113e-015 8.29926e-015
lhumerus 33.4255 -10.2039 52.5875
lradius 17.0435
lwrist -52.7134
lhand 8.08085 31.0787
lfingers 7.12502
lthumb 33.3039 58.0143
rfemur -55.5314 1.40204 17.9207
rtibia 50.5803
rfoot -1.34295 -29.2838
rtoes 34.0404
lfemur -21.6474 3.43419 -27.847
ltibia 36.4733
lfoot -19.122 18.0653
ltoes -8.93459
76
root 1.36424 17.8199 29.0123 -157.643 -14.0594 -183.703
lowerback -8.44183 -5.05593 -5.40772
upperback -10.4964 -7.89963 0.962805
thorax -5.55556 -4.15654 3.73856
lowerneck -14.6331 -1.07407 1.73829
upperneck 33.8366 1.0007 -0.528887
head 13.9677 1.64715 -0.0937085
rclavicle 5.73929e-014 1.88845e-014
rhumerus -67.3725 -74.1127 40.0282
rradius 11.7425
rwrist 69.652
rhand 1.6588 3.23815
rfingers 7.12502
rthumb 27.1782 -24.8245
lclavicle 5.73929e-014 1.88845e-014
lhumerus 34.0536 -12.1112 50.8487
lradius 17.3678
lwrist -50.3282
lhand 7.25767 31.0153
lfingers 7.12502
lthumb 32.5209 58.1154
rfemur -55.8181 1.23254 17.7579
rtibia 50.4567
rfoot -0.156672 -29.8808
rtoes 34.2153
lfemur -22.1056 3.58643 -28.253
ltibia 36.4716
lfoot -16.3841 17.7228
ltoes -11.1665
